<mxfile host="Electron" agent="Mozilla/5.0 (Windows NT 10.0; Win64; x64) AppleWebKit/537.36 (KHTML, like Gecko) draw.io/24.7.8 Chrome/128.0.6613.36 Electron/32.0.1 Safari/537.36" version="24.7.8">
  <diagram name="overall_map" id="vRsRPPbaaVLcXKzQXlP0">
    <mxGraphModel dx="1728" dy="1004" grid="1" gridSize="10" guides="1" tooltips="1" connect="1" arrows="1" fold="1" page="1" pageScale="1" pageWidth="850" pageHeight="1100" math="0" shadow="0">
      <root>
        <mxCell id="0" />
        <mxCell id="1" parent="0" />
        <mxCell id="OJj20zITUU0tehH8iank-43" value="data collected" style="edgeStyle=orthogonalEdgeStyle;rounded=0;orthogonalLoop=1;jettySize=auto;html=1;entryX=0;entryY=0.5;entryDx=0;entryDy=0;dashed=1;" edge="1" parent="1" source="OJj20zITUU0tehH8iank-1" target="OJj20zITUU0tehH8iank-2">
          <mxGeometry relative="1" as="geometry">
            <Array as="points">
              <mxPoint x="280" y="455" />
              <mxPoint x="280" y="240" />
            </Array>
          </mxGeometry>
        </mxCell>
        <mxCell id="OJj20zITUU0tehH8iank-45" value="data collected" style="edgeStyle=orthogonalEdgeStyle;rounded=0;orthogonalLoop=1;jettySize=auto;html=1;entryX=0;entryY=0.5;entryDx=0;entryDy=0;dashed=1;" edge="1" parent="1" source="OJj20zITUU0tehH8iank-1" target="OJj20zITUU0tehH8iank-4">
          <mxGeometry x="0.3167" relative="1" as="geometry">
            <Array as="points">
              <mxPoint x="280" y="455" />
              <mxPoint x="280" y="410" />
              <mxPoint x="330" y="410" />
              <mxPoint x="330" y="380" />
            </Array>
            <mxPoint as="offset" />
          </mxGeometry>
        </mxCell>
        <mxCell id="OJj20zITUU0tehH8iank-1" value="Retailer website" style="verticalLabelPosition=bottom;html=1;verticalAlign=top;align=center;strokeColor=none;fillColor=#00BEF2;shape=mxgraph.azure.website_generic;pointerEvents=1;" vertex="1" parent="1">
          <mxGeometry x="170" y="420" width="80" height="70" as="geometry" />
        </mxCell>
        <mxCell id="OJj20zITUU0tehH8iank-46" style="edgeStyle=orthogonalEdgeStyle;rounded=0;orthogonalLoop=1;jettySize=auto;html=1;entryX=1;entryY=0.5;entryDx=0;entryDy=0;curved=1;" edge="1" parent="1" source="OJj20zITUU0tehH8iank-2" target="OJj20zITUU0tehH8iank-3">
          <mxGeometry relative="1" as="geometry" />
        </mxCell>
        <mxCell id="OJj20zITUU0tehH8iank-2" value="get categories to scrape" style="rounded=0;whiteSpace=wrap;html=1;fillColor=#6d8764;fontColor=#ffffff;strokeColor=#3A5431;" vertex="1" parent="1">
          <mxGeometry x="470" y="210" width="120" height="60" as="geometry" />
        </mxCell>
        <mxCell id="OJj20zITUU0tehH8iank-23" style="edgeStyle=orthogonalEdgeStyle;rounded=0;orthogonalLoop=1;jettySize=auto;html=1;curved=1;" edge="1" parent="1" source="OJj20zITUU0tehH8iank-3" target="OJj20zITUU0tehH8iank-4">
          <mxGeometry relative="1" as="geometry" />
        </mxCell>
        <mxCell id="OJj20zITUU0tehH8iank-3" value="loop through each category" style="rounded=0;whiteSpace=wrap;html=1;fillColor=#1ba1e2;fontColor=#ffffff;strokeColor=#006EAF;" vertex="1" parent="1">
          <mxGeometry x="380" y="290" width="120" height="40" as="geometry" />
        </mxCell>
        <mxCell id="OJj20zITUU0tehH8iank-32" style="edgeStyle=orthogonalEdgeStyle;rounded=0;orthogonalLoop=1;jettySize=auto;html=1;curved=1;" edge="1" parent="1" source="OJj20zITUU0tehH8iank-4" target="OJj20zITUU0tehH8iank-28">
          <mxGeometry relative="1" as="geometry" />
        </mxCell>
        <mxCell id="OJj20zITUU0tehH8iank-4" value="get page 1 of the category page" style="rounded=0;whiteSpace=wrap;html=1;fillColor=#6d8764;fontColor=#ffffff;strokeColor=#3A5431;" vertex="1" parent="1">
          <mxGeometry x="380" y="360" width="120" height="40" as="geometry" />
        </mxCell>
        <mxCell id="OJj20zITUU0tehH8iank-36" style="edgeStyle=orthogonalEdgeStyle;rounded=0;orthogonalLoop=1;jettySize=auto;html=1;entryX=0.5;entryY=0;entryDx=0;entryDy=0;" edge="1" parent="1" source="OJj20zITUU0tehH8iank-5" target="OJj20zITUU0tehH8iank-6">
          <mxGeometry relative="1" as="geometry" />
        </mxCell>
        <mxCell id="OJj20zITUU0tehH8iank-5" value="find all products on the page for this category" style="rounded=0;whiteSpace=wrap;html=1;fillColor=#1ba1e2;fontColor=#ffffff;strokeColor=#006EAF;" vertex="1" parent="1">
          <mxGeometry x="505" y="610" width="120" height="50" as="geometry" />
        </mxCell>
        <mxCell id="OJj20zITUU0tehH8iank-37" style="edgeStyle=orthogonalEdgeStyle;rounded=0;orthogonalLoop=1;jettySize=auto;html=1;" edge="1" parent="1" source="OJj20zITUU0tehH8iank-6" target="OJj20zITUU0tehH8iank-7">
          <mxGeometry relative="1" as="geometry" />
        </mxCell>
        <mxCell id="OJj20zITUU0tehH8iank-6" value="parse the individual product data to get variables of interest" style="rounded=0;whiteSpace=wrap;html=1;fillColor=#0050ef;fontColor=#ffffff;strokeColor=#001DBC;" vertex="1" parent="1">
          <mxGeometry x="505" y="680" width="120" height="60" as="geometry" />
        </mxCell>
        <mxCell id="OJj20zITUU0tehH8iank-38" style="edgeStyle=orthogonalEdgeStyle;rounded=0;orthogonalLoop=1;jettySize=auto;html=1;" edge="1" parent="1" source="OJj20zITUU0tehH8iank-7" target="OJj20zITUU0tehH8iank-17">
          <mxGeometry relative="1" as="geometry" />
        </mxCell>
        <mxCell id="OJj20zITUU0tehH8iank-7" value="save the data for all products on all pages of every category initially collected" style="rounded=0;whiteSpace=wrap;html=1;fillColor=#1ba1e2;fontColor=#ffffff;strokeColor=#006EAF;" vertex="1" parent="1">
          <mxGeometry x="505" y="764" width="120" height="60" as="geometry" />
        </mxCell>
        <mxCell id="OJj20zITUU0tehH8iank-21" style="edgeStyle=orthogonalEdgeStyle;rounded=0;orthogonalLoop=1;jettySize=auto;html=1;entryX=0.5;entryY=0;entryDx=0;entryDy=0;curved=1;" edge="1" parent="1" source="OJj20zITUU0tehH8iank-11" target="OJj20zITUU0tehH8iank-2">
          <mxGeometry relative="1" as="geometry" />
        </mxCell>
        <mxCell id="OJj20zITUU0tehH8iank-11" value="specify initial site url" style="html=1;align=center;verticalAlign=middle;rounded=0;absoluteArcSize=1;arcSize=10;dashed=0;whiteSpace=wrap;fillColor=#f0a30a;fontColor=#000000;strokeColor=#BD7000;" vertex="1" parent="1">
          <mxGeometry x="485" y="130" width="140" height="30" as="geometry" />
        </mxCell>
        <mxCell id="OJj20zITUU0tehH8iank-12" value="{initialize scrape with initial site}" style="text;verticalAlign=middle;align=center;html=1;" vertex="1" parent="OJj20zITUU0tehH8iank-11">
          <mxGeometry y="30" width="140" height="15" as="geometry" />
        </mxCell>
        <mxCell id="OJj20zITUU0tehH8iank-17" value="Scraped data" style="shape=parallelogram;perimeter=parallelogramPerimeter;whiteSpace=wrap;html=1;fixedSize=1;fillColor=#76608a;fontColor=#ffffff;strokeColor=#432D57;" vertex="1" parent="1">
          <mxGeometry x="500" y="848" width="130" height="50" as="geometry" />
        </mxCell>
        <mxCell id="OJj20zITUU0tehH8iank-33" style="edgeStyle=orthogonalEdgeStyle;rounded=0;orthogonalLoop=1;jettySize=auto;html=1;" edge="1" parent="1" source="OJj20zITUU0tehH8iank-28" target="OJj20zITUU0tehH8iank-29">
          <mxGeometry relative="1" as="geometry" />
        </mxCell>
        <mxCell id="OJj20zITUU0tehH8iank-28" value="determine last page number for this category" style="rounded=0;whiteSpace=wrap;html=1;fillColor=#0050ef;fontColor=#ffffff;strokeColor=#001DBC;" vertex="1" parent="1">
          <mxGeometry x="365" y="425" width="120" height="55" as="geometry" />
        </mxCell>
        <mxCell id="OJj20zITUU0tehH8iank-42" style="edgeStyle=orthogonalEdgeStyle;rounded=0;orthogonalLoop=1;jettySize=auto;html=1;curved=1;" edge="1" parent="1" source="OJj20zITUU0tehH8iank-29" target="OJj20zITUU0tehH8iank-40">
          <mxGeometry relative="1" as="geometry">
            <Array as="points">
              <mxPoint x="425" y="630" />
              <mxPoint x="360" y="630" />
            </Array>
          </mxGeometry>
        </mxCell>
        <mxCell id="OJj20zITUU0tehH8iank-29" value="Loop through the rest of the pages of the category" style="rounded=0;whiteSpace=wrap;html=1;fillColor=#1ba1e2;fontColor=#ffffff;strokeColor=#006EAF;" vertex="1" parent="1">
          <mxGeometry x="365" y="510" width="120" height="52" as="geometry" />
        </mxCell>
        <mxCell id="OJj20zITUU0tehH8iank-41" style="edgeStyle=orthogonalEdgeStyle;rounded=0;orthogonalLoop=1;jettySize=auto;html=1;curved=1;" edge="1" parent="1" source="OJj20zITUU0tehH8iank-40" target="OJj20zITUU0tehH8iank-5">
          <mxGeometry relative="1" as="geometry" />
        </mxCell>
        <mxCell id="OJj20zITUU0tehH8iank-40" value="get N&#39;th page of the category (including first)" style="rounded=0;whiteSpace=wrap;html=1;fillColor=#6d8764;fontColor=#ffffff;strokeColor=#3A5431;" vertex="1" parent="1">
          <mxGeometry x="330" y="582" width="120" height="60" as="geometry" />
        </mxCell>
        <mxCell id="OJj20zITUU0tehH8iank-44" value="data collected" style="edgeStyle=orthogonalEdgeStyle;rounded=0;orthogonalLoop=1;jettySize=auto;html=1;dashed=1;entryX=0.001;entryY=0.514;entryDx=0;entryDy=0;entryPerimeter=0;" edge="1" parent="1" source="OJj20zITUU0tehH8iank-1" target="OJj20zITUU0tehH8iank-40">
          <mxGeometry relative="1" as="geometry">
            <mxPoint x="250" y="696" as="targetPoint" />
            <Array as="points">
              <mxPoint x="280" y="455" />
              <mxPoint x="280" y="610" />
              <mxPoint x="300" y="610" />
            </Array>
          </mxGeometry>
        </mxCell>
      </root>
    </mxGraphModel>
  </diagram>
</mxfile>
